<?xml version="1.0" encoding="utf-8"?>
<!-- Generator: Adobe Illustrator 24.1.0, SVG Export Plug-In . SVG Version: 6.00 Build 0)  -->
<svg version="1.1" id="Capa_1" xmlns="http://www.w3.org/2000/svg" xmlns:xlink="http://www.w3.org/1999/xlink" x="0px" y="0px"
	 viewBox="0 0 512 512" style="enable-background:new 0 0 512 512;" xml:space="preserve">
<path d="M503.8,395.4l-195.7-339c-10.9-18.8-30.4-30.1-52.1-30.1c-21.8,0-41.3,11.3-52.1,30.1L8.2,395.4
	c-10.9,18.9-10.9,41.4,0,60.2c10.9,18.8,30.4,30.1,52.1,30.1h391.4c21.8,0,41.3-11.3,52.1-30.1C514.7,436.7,514.7,414.2,503.8,395.4
	z M477.9,440.6c-5.5,9.5-15.2,15.1-26.2,15.1H60.3c-10.9,0-20.7-5.6-26.2-15.1s-5.5-20.8,0-30.2l195.7-339
	c5.5-9.5,15.2-15.1,26.2-15.1c10.9,0,20.7,5.6,26.2,15.1l195.7,339C483.3,419.8,483.3,431.1,477.9,440.6z M241,176h30v150h-30V176z
	 M256,356c-11,0-20,9-20,20s9,20,20,20c11,0,20-9,20-20S267,356,256,356z"/>
</svg>
