<?xml version="1.0" encoding="utf-8"?>
<!-- Generator: Adobe Illustrator 22.1.0, SVG Export Plug-In . SVG Version: 6.00 Build 0)  -->
<svg version="1.1" id="Layer_1" xmlns="http://www.w3.org/2000/svg" xmlns:xlink="http://www.w3.org/1999/xlink" x="0px" y="0px"
	 viewBox="0 0 250 250" style="enable-background:new 0 0 250 250;" xml:space="preserve">
<style type="text/css">
	.st0{opacity:0.7;fill:#E5E8EB;enable-background:new    ;}
	.st1{opacity:0.4;fill:#E5E8EB;enable-background:new    ;}
	.st2{fill:none;stroke:#A8B0BB;stroke-width:5;stroke-miterlimit:10;}
	.st3{fill:#A8B0BB;}
	.st4{fill:none;}
	.st5{fill:#FFFFFF;}
	.st6{fill:#A8B0BB;stroke:#FFFFFF;stroke-width:3;stroke-miterlimit:10;}
	.st7{fill:#F9914B;}
	.st8{opacity:0.5;fill:none;stroke:#A8B0BB;stroke-width:2;stroke-miterlimit:10;enable-background:new    ;}
	.st9{fill:#16A085;stroke:#FFFFFF;stroke-miterlimit:10;}
</style>
<path class="st0" d="M141.2,164.5H81.1c-9.6,0-17.3-7.8-17.3-17.3V69.8c0-9.6,7.8-17.3,17.3-17.3h60.1c9.6,0,17.3,7.8,17.3,17.3
	v77.3C158.6,156.6,150.8,164.5,141.2,164.5z"/>
<path class="st1" d="M59.7,173h142.1c0,0-25.6,37.9-67.5,38.1c-41.9,0.2-0.9,0-0.9,0S85.6,212.1,59.7,173z"/>
<circle class="st2" cx="131.9" cy="126" r="85.2"/>
<rect x="33.2" y="176.9" class="st3" width="10.9" height="5.1"/>
<rect x="220.8" y="176.9" class="st3" width="10.9" height="5.1"/>
<line class="st4" x1="81.9" y1="176.1" x2="175.1" y2="176.1"/>
<path class="st3" d="M179.2,176.9H86.1 M83.3,176.9H46.5v5.1h37h2.9h92.5h2.9h37v-5.1H182"/>
<circle class="st5" cx="163.1" cy="162.6" r="29.6"/>
<path class="st6" d="M164.1,121.3V78.7c0-10-8.2-18.1-18.1-18.1H82.1c-5.7,0-10.7,5-10.7,11v84.9c0,10,8.2,18.1,18.1,18.1h38.3
	c2.4,0,4.7,1.3,6.1,3.4c5.9,9.5,16.3,16,28.6,16c18.4,0,33.4-15,33.4-33.4c-0.3-15.8-11.5-28.8-26.2-32.3
	C166.4,127.5,164.1,124.6,164.1,121.3z M120.9,168.2H89.2c-6.6,0-11.8-5.3-11.8-11.8V78.7C78,66.8,78,66.8,89.2,66.9h56.7
	c6.6,0,11.8,5.3,11.8,11.8v43.5c0,3.1-3.1,5.9-6.1,6.8c-2.9,0.8-5.6,2.1-8.1,3.8c-0.2,0.1-0.3,0.2-0.5,0.3l-4.2,3.4
	c-0.1,0.1-0.3,0.3-0.5,0.4c-6.5,6-10.5,14.6-10.5,24.2l0,0C128,164.9,124.9,168.2,120.9,168.2z M164.4,187.3
	c-16.9,1.5-30.8-12.4-29.3-29.3c1.1-12.8,11.6-23.4,24.5-24.5c16.9-1.5,30.8,12.4,29.3,29.3C187.8,175.8,177.4,186.3,164.4,187.3z"
	/>
<polygon class="st7" points="218.2,61.4 218.3,61.3 217.2,61 216.2,64.8 212.6,63.9 212.5,63.9 212.3,65 216,65.8 215.1,69.5 
	215.1,69.6 216.2,69.9 217.1,66.2 220.7,67 220.8,67 221.1,65.9 217.4,65 "/>
<polygon class="st7" points="235.4,93.5 235.4,93.4 234.3,93.1 233.4,96.9 229.9,96 229.7,96 229.4,97.1 233.2,97.9 232.3,101.6 
	232.3,101.7 233.4,101.9 234.3,98.3 238,99.1 238,99.1 238.3,98 234.5,97.1 "/>
<polygon class="st7" points="28.9,117.3 26.4,120.8 27.5,121.4 27.6,121.4 29.9,118.1 33.3,120.4 34,119.4 33.9,119.4 30.6,117 
	33,113.6 32,112.9 31.9,113 29.6,116.3 26.2,113.9 25.5,115 25.5,115 "/>
<polygon class="st7" points="28.1,154 25.7,157.4 26.7,158.1 26.8,158 29.2,154.7 32.5,157.1 33.3,156.1 33.1,156 29.8,153.7 
	32.2,150.3 31.2,149.6 31.1,149.7 28.8,153 25.4,150.6 24.7,151.6 24.8,151.7 "/>
<circle class="st3" cx="82.9" cy="70.7" r="1.9"/>
<circle class="st3" cx="89.5" cy="70.7" r="1.9"/>
<circle class="st3" cx="96" cy="70.7" r="1.9"/>
<circle class="st3" cx="102.2" cy="99" r="4.5"/>
<circle class="st3" cx="132.9" cy="99" r="4.5"/>
<path class="st3" d="M109.4,124.1c1.8-2.7,4.9-4.4,8.3-4.4s6.5,1.7,8.3,4.4h3.2c-2.1-4.3-6.4-7.2-11.5-7.2s-9.4,2.9-11.5,7.2H109.4z
	"/>
<rect x="74" y="76.3" class="st3" width="87.1" height="3.3"/>
<ellipse transform="matrix(0.995 -0.1001 0.1001 0.995 -6.6497 24.1203)" class="st8" cx="237" cy="78.3" rx="2.9" ry="2.9"/>
<ellipse transform="matrix(0.995 -0.1001 0.1001 0.995 -11.0239 24.0596)" class="st8" cx="234.2" cy="121.9" rx="2.9" ry="2.9"/>
<circle class="st8" cx="23" cy="94.1" r="2.9"/>
<polygon class="st9" points="176.9,150.1 177.2,149.9 173.8,146.4 162.4,157.9 151.3,146.7 151,146.4 147.6,149.9 158.9,161.2 
	147.8,172.3 147.6,172.6 151,176.1 162.4,164.7 173.5,175.8 173.8,176.1 177.2,172.6 165.8,161.2 "/>
<circle class="st8" cx="12.8" cy="137.8" r="2.9"/>
</svg>
